<svg xmlns="http://www.w3.org/2000/svg" viewBox="0 0 17.5 17.5">
    <style>
        .cls-1 {
            fill: #fff;
        }
    </style>
    <path class="cls-1" d="M1360.51,48.59a8.74,8.74,0,0,0-.71,17.46v0h.71a8.75,8.75,0,1,0,0-17.49Zm7.23,7.52a9.81,9.81,0,0,0-3.37.14,10.66,10.66,0,0,0-.83-1.78,10.71,10.71,0,0,0,2.48-2A7.28,7.28,0,0,1,1367.74,56.11ZM1365,51.53a9.36,9.36,0,0,1-2.24,1.77,10.7,10.7,0,0,0-2-1.95h0l0,0-.08-.05-.06,0-.16-.12-.14-.09,0,0-.26-.18-.28-.17-.21-.12,0,0h-.05l0,0,0,0h0l0,0-.18-.1h0l-.14-.07a7.59,7.59,0,0,1,1.59-.17A7.31,7.31,0,0,1,1365,51.53Zm-8-.61h0l.35.11.12,0a4.43,4.43,0,0,1,.47.2l0,0h0l.32.15.15.07h0l.1.06.06,0,.06,0,0,0h0l0,0,.18.1.13.08,0,0h0l0,0,0,0a.82.82,0,0,1,.17.11l.1.07h0l0,0,.13.09.06.05.09.06.11.08a9.46,9.46,0,0,1,1.48,1.42,9.13,9.13,0,0,1-1.45.39h0a9.1,9.1,0,0,1-3.25,0h0a9.46,9.46,0,0,1-2.44-.81A7.35,7.35,0,0,1,1357,50.92Zm-3.78,6.41a7.26,7.26,0,0,1,.46-2.56,10.2,10.2,0,0,0,2.81.93,10.5,10.5,0,0,0,3.75,0h0a10.28,10.28,0,0,0,2-.6,9.49,9.49,0,0,1,.74,1.54,10.56,10.56,0,0,0-6.55,6.79A7.31,7.31,0,0,1,1353.19,57.33Zm7.32,7.33a7.18,7.18,0,0,1-2.78-.55,9.13,9.13,0,0,1,5.67-6.1,9.37,9.37,0,0,1-1,6.4,6.86,6.86,0,0,1-1.71.25Zm3.87-1.1a10.83,10.83,0,0,0,.38-5.94,8.19,8.19,0,0,1,3.08,0A7.31,7.31,0,0,1,1364.38,63.56Z" transform="translate(-1351.77 -48.59)"/>
</svg>