<svg xmlns="http://www.w3.org/2000/svg" viewBox="0 0 17.5 14.22">
    <style>
        .cls-1 {
            fill: #fff;
        }
    </style>
    <path class="cls-1" d="M1325.29,51.91a7.22,7.22,0,0,1-2.07.57,3.55,3.55,0,0,0,1.58-2,7.14,7.14,0,0,1-2.28.87,3.59,3.59,0,0,0-6.11,3.27,10.15,10.15,0,0,1-7.4-3.75,3.6,3.6,0,0,0,1.11,4.8,3.61,3.61,0,0,1-1.63-.45,3.59,3.59,0,0,0,2.88,3.56,3.52,3.52,0,0,1-1.62.06,3.6,3.6,0,0,0,3.35,2.5,7.19,7.19,0,0,1-5.31,1.48,10.2,10.2,0,0,0,15.71-9.06A7.36,7.36,0,0,0,1325.29,51.91Z" transform="translate(-1307.79 -50.23)"/>
</svg>