<svg xmlns="http://www.w3.org/2000/svg" viewBox="0 0 17.43 17">
    <path d="M1282.81,48.59a8.72,8.72,0,0,0-2.75,17c.43.08.59-.19.59-.42s0-.9,0-1.63c-2.42.53-2.94-1-2.94-1a2.3,2.3,0,0,0-1-1.28c-.79-.54.06-.53.06-.53a1.82,1.82,0,0,1,1.33.9,1.85,1.85,0,0,0,2.54.72,1.86,1.86,0,0,1,.55-1.16c-1.93-.22-4-1-4-4.31a3.37,3.37,0,0,1,.9-2.34,3.15,3.15,0,0,1,.08-2.31s.74-.23,2.4.9a8.11,8.11,0,0,1,4.37,0c1.66-1.13,2.39-.9,2.39-.9a3.12,3.12,0,0,1,.09,2.31,3.37,3.37,0,0,1,.9,2.34c0,3.35-2,4.09-4,4.3a2.06,2.06,0,0,1,.6,1.62c0,1.16,0,2.1,0,2.39s.15.5.59.42a8.72,8.72,0,0,0-2.76-17" transform="translate(-1274.1 -48.59)"/>
</svg>