<?xml version="1.0" encoding="utf-8"?>
<!-- Generator: Adobe Illustrator 26.5.0, SVG Export Plug-In . SVG Version: 6.00 Build 0)  -->
<svg version="1.1" id="a" xmlns:svgjs="http://svgjs.dev/svgjs"
	 xmlns="http://www.w3.org/2000/svg" xmlns:xlink="http://www.w3.org/1999/xlink" x="0px" y="0px" viewBox="0 0 1000 1000"
	 style="enable-background:new 0 0 1000 1000;" xml:space="preserve">
<style type="text/css">
	.st0{fill:#070709;}
	.st1{fill:#EFEFEF;}
</style>
<path class="st0" d="M311.3,1000.4C139.6,1000.4,0,860.8,0,689.2V311.7C0,140.1,139.6,0.4,311.3,0.4h377.4
	c171.6,0,311.3,139.6,311.3,311.3v377.4c0,171.6-139.6,311.3-311.3,311.3H311.3z"/>
<path class="st1" d="M688.9,111.6H311.1c-110.3,0-200,89.7-200,200v377.8c0,110.3,89.7,200,200,200h377.8c110.3,0,200-89.7,200-200
	V311.6C888.9,201.3,799.2,111.6,688.9,111.6L688.9,111.6z M777.8,533.6c0,12.3-10,22.2-22.2,22.2H633.3c-12.3,0-22.2-10-22.2-22.2
	v-66.7c0-12.3,10-22.2,22.2-22.2h122.2c12.3,0,22.2,10,22.2,22.2V533.6z M777.8,311.6c0,12.3-10,22.2-22.2,22.2H355.7
	c-12.3,0-22.2,10-22.2,22.2v66.7c0,12.3,10,22.2,22.2,22.2h122.2c12.3,0,22.2,10,22.2,22.2v66.7c0,12.3-10,22.2-22.2,22.2H355.7
	c-12.3,0-22.2,10-22.2,22.2v66.7c0,12.3,10,22.2,22.2,22.2h399.9c12.3,0,22.2,10,22.2,22.2c0,49.1-39.8,88.9-88.9,88.9H311.1
	c-49.1,0-88.9-39.8-88.9-88.9V311.6c0-49.1,39.8-88.9,88.9-88.9h377.8C738,222.7,777.8,262.5,777.8,311.6L777.8,311.6L777.8,311.6z"
	/>
</svg>
