<?xml version="1.0" standalone="no"?>
<!DOCTYPE svg PUBLIC "-//W3C//DTD SVG 20010904//EN"
 "http://www.w3.org/TR/2001/REC-SVG-20010904/DTD/svg10.dtd">
<svg version="1.0" xmlns="http://www.w3.org/2000/svg"
 width="700.000000pt" height="700.000000pt" viewBox="0 0 700.000000 700.000000"
 preserveAspectRatio="xMidYMid meet">
<metadata>
Created by potrace 1.14, written by Peter Selinger 2001-2017
</metadata>
<g transform="translate(0.000000,700.000000) scale(0.100000,-0.100000)"
fill="#000000" stroke="none">
<path d="M1753 5254 c-959 -959 -1743 -1748 -1743 -1754 0 -6 785 -795 1745
-1755 l1745 -1745 1750 1750 1750 1750 -1750 1750 c-962 962 -1751 1750 -1752
1749 -2 0 -787 -786 -1745 -1745z m1982 391 c129 -129 235 -238 235 -242 0 -4
-427 -433 -949 -955 l-949 -948 715 -714 714 -714 949 949 c521 522 951 949
954 949 4 0 112 -106 241 -235 l235 -235 -1187 -1185 c-653 -652 -1191 -1184
-1195 -1183 -5 2 -541 536 -1193 1186 l-1184 1183 1187 1189 c653 653 1188
1189 1189 1189 2 1 109 -105 238 -234z m955 -955 c127 -127 230 -233 230 -238
0 -4 -319 -326 -709 -716 l-709 -709 -29 24 c-15 13 -122 120 -238 237 l-210
212 710 710 c391 391 713 710 717 710 5 0 112 -104 238 -230z"/>
</g>
</svg>
